<svg xmlns="http://www.w3.org/2000/svg" viewBox="0 0 70 62.67"><defs><style>.cls-1{fill:none;}.cls-1,.cls-2{stroke:#000;stroke-miterlimit:10;stroke-width:2px;}.cls-2{fill:#49bdd5;}</style></defs><g id="logos"><path class="cls-1" d="M13,62V40a17.8,17.8,0,0,1,4.5-11.5c1-1,1-3.36,1-3.36V2.5H52V25.14s0,2.36,1,3.36A17.8,17.8,0,0,1,57.5,40V62"/><path class="cls-2" d="M35.25,52.9,13.16,37.77A51.34,51.34,0,0,1,15.07,32s20.07,6.53,40.5.27c0,0,2.42,5,1.92,7.35L35.25,52.9v9.77"/><rect class="cls-1" x="34" y="22" width="2.52" height="2.46"/><polyline class="cls-1" points="10 14 14 20 10 26"/><line class="cls-1" y1="20" x2="14" y2="20"/><polyline class="cls-1" points="61 13 57 20 61 26"/><line class="cls-1" x1="70" y1="20" x2="57" y2="20"/></g></svg>