<svg xmlns="http://www.w3.org/2000/svg" viewBox="0 0 59.74 63"><defs><style>.cls-1{fill:none;stroke:#000;stroke-miterlimit:10;stroke-width:2px;}</style></defs><g id="logos"><path class="cls-1" d="M5.85,23.11s11,8,10,19"/><path class="cls-1" d="M40.85,41.11s-8.48-9-25.24-3.49"/><path class="cls-1" d="M2.35,56.61a32.1,32.1,0,0,0,5,3c9,2,29,0,29,0a102.3,102.3,0,0,0,11-3c6-2,7-6,7-6,1-8,2-12.71,2-12.71,2-7.71,0-22.29,0-22.29a20.19,20.19,0,0,0-4.7-9.67,8,8,0,0,1-.54-.76c-2.2-3.49-7.76-2.57-7.76-2.57s-7,3-9,7,1,6,4.12,6.39,6.88-2.39,6.88-2.39l1-1-1,13s-4.76,4.3-6.88,13.65"/></g></svg>