<svg xmlns="http://www.w3.org/2000/svg" viewBox="0 0 69.38 69.65"><defs><style>.cls-1,.cls-2{fill:none;stroke-miterlimit:10;stroke-width:2px;}.cls-1{stroke:#000;}.cls-2{stroke:#49d5a7;}</style></defs><g id="logos"><path class="cls-1" d="M61.39,33.88c.55,5.62,2.86,12.57,4,15.69a27.16,27.16,0,0,1,1.11,3.87c1.91,9.21.18,10.94.18,10.94-3,3-3,3-8,4a8.13,8.13,0,0,1-7.22-2.17,10.59,10.59,0,0,0-2.94-2,16.55,16.55,0,0,0-7.2-1.31,13.44,13.44,0,0,0-5.59,1.45A26.77,26.77,0,0,0,31,67a1.54,1.54,0,0,1-.87.47c-1.7.42-7.14,1.54-10.48-.13a9.66,9.66,0,0,0-8,0s-8.5,3.5-9.5-1.5,3-5,3-5A12.77,12.77,0,0,0,9.81,60a2.05,2.05,0,0,0,.59-.38,10.86,10.86,0,0,1,6.76-2.77c1.35,0,2.7-1,3.77-2.13A30.44,30.44,0,0,1,33,46.93c1.66-.55,2.94-.89,3.41-1a2,2,0,0,0,.38-.14l.67-.32a3.37,3.37,0,0,0,.32-.19,18.46,18.46,0,0,0,7.35-11.39"/><path class="cls-1" d="M43.44,13.39a1.92,1.92,0,0,0-.75-.77c-1.37-.78-5.19-3.26-3.53-5.74A4.41,4.41,0,0,1,43,4.72a2.11,2.11,0,0,0,1.76-.91c.84-1.24,2.55-2.89,5.16-1.12a2,2,0,0,1,.53.54c.43.68,1.13,2.34,0,5a2,2,0,0,0,0,1.45l2.61,6.92.6,1.8s0,1.9-1.52,1.66A2.08,2.08,0,0,0,50,21c-.5.83-1.28,1.48-2.35.41C47.66,21.38,45.81,17.68,43.44,13.39Z"/><line class="cls-2" x1="38.09" y1="21.94" x2="43.16" y2="22.88"/><line class="cls-2" x1="38.75" y1="27.54" x2="44.16" y2="25.88"/><line class="cls-2" x1="41.16" y1="32.88" x2="45.16" y2="28.88"/><line class="cls-2" x1="57.16" y1="18.88" x2="60.16" y2="14.88"/><line class="cls-2" x1="58.66" y1="21.94" x2="64.16" y2="19.88"/><line class="cls-2" x1="59.16" y1="25.88" x2="65.16" y2="26.88"/><path class="cls-1" d="M49.16,42.88l.08-14.78s2.29-3,3.51-.7a.35.35,0,0,0,.62,0c.49-1,1.6-2.14,3.53.79V43s2.76,2.36,2.76,4.36-1,6.76-6.5,2.88c0,0-5.5,4.12-6.5-1.88A8.47,8.47,0,0,1,49.16,42.88Z"/></g></svg>