<svg xmlns="http://www.w3.org/2000/svg" viewBox="0 0 92.89 61.64"><defs><style>.cls-1{fill:none;}.cls-1,.cls-2{stroke:#000;stroke-miterlimit:10;stroke-width:2px;}.cls-2{fill:#49bdd5;}</style></defs><g id="logos"><path class="cls-1" d="M29.3,2.14s2,6.89,0,10.29c-1.85,3.11-7.43,10.82-8.51,17.66-1.22,7.7,6.07,28.76,6.07,28.76"/><path class="cls-1" d="M64.54,4.17s-1.35,6.48.67,9.88c1.85,3.11,7.43,10.82,8.51,17.66,1.21,7.7-6.08,28.76-6.08,28.76"/><path class="cls-2" d="M27.18,15.8H66.3S71,22.69,72.62,27.61c0,0-13.18,10.57-20.77,19.06a6.71,6.71,0,0,1-10.31-.39A90.92,90.92,0,0,0,21.32,27.72S23.84,20.14,27.18,15.8Z"/><path class="cls-1" d="M62.92,44.67s-8.1,8.11-16.21-1.62"/><path class="cls-1" d="M33.75,45.48s8.86,4.79,15.37,0"/><line class="cls-1" x1="47.52" y1="59.66" x2="47.52" y2="48.72"/><polyline class="cls-1" points="2.35 26.66 9.35 19.66 15.62 26.66"/><line class="cls-1" x1="8.99" y1="33.86" x2="9.35" y2="19.66"/><polyline class="cls-1" points="77.25 26.65 84.25 19.65 90.52 26.65"/><line class="cls-1" x1="83.89" y1="33.85" x2="84.25" y2="19.65"/></g></svg>