<svg xmlns="http://www.w3.org/2000/svg" viewBox="0 0 52.26 60.59"><defs><style>.cls-1{fill:none;}.cls-1,.cls-2{stroke:#000;stroke-miterlimit:10;stroke-width:2px;}.cls-2{fill:#4977d5;}</style></defs><g id="logos"><circle class="cls-1" cx="26.51" cy="34.78" r="2.75"/><path class="cls-2" d="M26.13,11.2A23.63,23.63,0,1,0,49.76,34.83,23.63,23.63,0,0,0,26.13,11.2Zm-.06,40.26A16.69,16.69,0,1,1,42.76,34.77,16.69,16.69,0,0,1,26.07,51.46Z"/><line class="cls-1" x1="27.91" y1="32.03" x2="33.76" y2="27.03"/><line class="cls-1" x1="29.26" y1="34.78" x2="32.76" y2="34.03"/><path class="cls-1" d="M21.92,11.58V3.51S26.26-1,31,3.51v8.07"/><path class="cls-1" d="M37.46,14.09l3.22-2.51S45.76,9,45.76,15l-2.19,3.86"/><path class="cls-1" d="M7.86,19.84,6.76,14s.46-4.66,4.73-2.83l4.18,2.44"/><polygon class="cls-2" points="42.76 51.61 44.76 58.03 39.32 59.03 37.38 55.61 42.76 51.61"/><polygon class="cls-2" points="9.5 51.61 7.15 58.46 14.13 59.03 14.37 55.32 9.5 51.61"/></g></svg>