<svg xmlns="http://www.w3.org/2000/svg" viewBox="0 0 174 150"><defs><style>.cls-1{fill:none;}.cls-1,.cls-2{stroke:#000;stroke-miterlimit:10;stroke-width:2px;}.cls-2{fill:#4977d5;}</style></defs><g id="logos"><circle class="cls-1" cx="87.68" cy="82.62" r="4.64"/><path class="cls-2" d="M87,42.87A39.83,39.83,0,1,0,126.87,82.7,39.83,39.83,0,0,0,87,42.87Zm-.1,67.86A28.13,28.13,0,1,1,115.07,82.6,28.12,28.12,0,0,1,86.94,110.73Z"/><line class="cls-1" x1="90.06" y1="77.99" x2="99.9" y2="69.56"/><line class="cls-1" x1="92.31" y1="82.62" x2="98.21" y2="81.36"/><path class="cls-1" d="M80,43.51V29.91s7.3-7.62,15.3,0v13.6"/><path class="cls-1" d="M106.15,47.75l5.42-4.24s8.56-4.3,8.56,5.82l-3.68,6.51"/><path class="cls-1" d="M56.25,57.44l-1.86-9.8s.79-7.85,8-4.77l7,4.11"/><polygon class="cls-2" points="115.07 111 118.44 121.81 109.28 123.5 106 117.74 115.07 111"/><polygon class="cls-2" points="59.01 111 55.05 122.53 66.81 123.5 67.22 117.25 59.01 111"/></g></svg>