<svg xmlns="http://www.w3.org/2000/svg" viewBox="0 0 68.95 62.62"><defs><style>.cls-1,.cls-2{fill:none;stroke-miterlimit:10;stroke-width:2px;}.cls-1{stroke:#231f20;}.cls-2{stroke:#49d5a7;}</style></defs><g id="logos"><path class="cls-1" d="M29,1.06a11.61,11.61,0,0,1-3.93,9.42,12.43,12.43,0,0,1-5.53,2.83c-2,.46-5.64,1.75-7,5.25-2,5-9,23-11,32"/><path class="cls-1" d="M7.49,53.56s13-15,12-28c0,0,3,14,2,35"/><path class="cls-1" d="M47.75,60.56s-2-17.5,2.39-34.75c0,0-1.65,10.75,11.35,27.75"/><path class="cls-1" d="M67.49,49.56s-5.71-14.27-7.85-22.4c-.09-.36-.16-.73-.22-1.11a24.3,24.3,0,0,0-2.77-7.92A11.71,11.71,0,0,0,49.91,13,14.3,14.3,0,0,1,39.49,1.56"/><line class="cls-2" x1="32.49" y1="7.56" x2="35.49" y2="11.56"/><path class="cls-2" d="M36.49,13.56A32.77,32.77,0,0,1,38,19.38"/><path class="cls-2" d="M37.24,27.21S38.49,24,38,21.76"/><path class="cls-2" d="M36.49,29.56a7.65,7.65,0,0,0-2,5"/><path class="cls-2" d="M34,37.42a35.54,35.54,0,0,0-1.5,5.11"/><path class="cls-2" d="M32.49,44.56a14.73,14.73,0,0,0-.48,6"/><path class="cls-2" d="M32.18,52.91s.31,3.35,1.81,4"/></g></svg>