<svg xmlns="http://www.w3.org/2000/svg" viewBox="0 0 68.32 69.4"><defs><style>.cls-1{fill:none;stroke:#231f20;}.cls-1,.cls-2,.cls-3{stroke-miterlimit:10;}.cls-1,.cls-2{stroke-width:2px;}.cls-2,.cls-3{fill:#49d5a7;}.cls-2{stroke:#000;}.cls-3{stroke:#49d5a7;}</style></defs><g id="logos"><path class="cls-1" d="M50.5,1.49s-19,3-27,16A10.52,10.52,0,0,1,20,21c-2,1-9.7,5.65-4,18,6,13,29,29,29,29"/><path class="cls-1" d="M55,67s-6-13-8-16c0,0-1.75-9.63-8.53-15.78a.73.73,0,0,1,.44-1.28C44,33.66,58.11,32.27,67,25"/><circle class="cls-2" cx="20.5" cy="30.49" r="2.5"/><rect class="cls-3" x="8.5" y="16.39" width="1" height="7.21" transform="translate(-12.63 16.39) rotate(-56.31)"/><rect class="cls-3" x="2" y="27.49" width="7" height="1"/><rect class="cls-3" x="3.39" y="35.49" width="7.21" height="1" transform="translate(-18.79 9.93) rotate(-33.69)"/></g></svg>