<svg xmlns="http://www.w3.org/2000/svg" viewBox="0 0 174 150"><defs><style>.cls-1{fill:none;}.cls-1,.cls-2,.cls-3{stroke:#000;stroke-miterlimit:10;stroke-width:2px;}.cls-2{fill:#49bdd5;}.cls-3{fill:#4977d5;}</style></defs><g id="logos"><path class="cls-1" d="M78.35,28.65S91.7,38.47,83.7,50.54a18.91,18.91,0,0,1-8.12,6.76L58.73,64.84"/><circle class="cls-1" cx="58.35" cy="105.58" r="6.15"/><circle class="cls-1" cx="58.25" cy="105.52" r="16.98"/><circle class="cls-1" cx="121.19" cy="101.9" r="7.28"/><circle class="cls-1" cx="121.07" cy="101.83" r="20.1"/><line class="cls-1" x1="71.9" y1="115.62" x2="105.8" y2="114.9"/><line class="cls-1" x1="57.05" y1="88.58" x2="58.35" y2="99.42"/><line class="cls-1" x1="63.28" y1="101.9" x2="73.44" y2="97.93"/><circle class="cls-2" cx="45.02" cy="68.65" r="6.15"/><rect class="cls-3" x="44.4" y="28.66" width="32.78" height="12.21" rx="3.98" transform="translate(27.19 -26.68) rotate(31.57)"/><path class="cls-1" d="M60.05,88.63l-2.34-48.3c0-.07-.1-.09-.14,0L46.91,62.8"/><line class="cls-1" x1="45.02" y1="74.81" x2="50.54" y2="90.39"/><rect class="cls-3" x="79.89" y="98.93" width="14.87" height="9.72" rx="3.17"/><line class="cls-1" x1="64.51" y1="105.58" x2="79.89" y2="104.63"/><line class="cls-1" x1="94.77" y1="103.79" x2="113.9" y2="101.9"/><line class="cls-1" x1="63.23" y1="29.11" x2="67.07" y2="24.04"/></g></svg>