<svg xmlns="http://www.w3.org/2000/svg" viewBox="0 0 89.5 87.92"><defs><style>.cls-1{fill:none;}.cls-1,.cls-2,.cls-3{stroke:#000;stroke-miterlimit:10;stroke-width:2px;}.cls-2{fill:#49bdd5;}.cls-3{fill:#4977d5;}</style></defs><g id="logos"><path class="cls-1" d="M34.5,7S45.66,15.19,39,25.28a15.79,15.79,0,0,1-6.79,5.65L18.1,37.23"/><circle class="cls-1" cx="17.79" cy="71.28" r="5.14"/><circle class="cls-1" cx="17.7" cy="71.23" r="14.19"/><circle class="cls-1" cx="70.3" cy="68.21" r="6.09"/><circle class="cls-1" cx="70.2" cy="68.15" r="16.8"/><line class="cls-1" x1="29.11" y1="79.68" x2="57.44" y2="79.07"/><line class="cls-1" x1="16.69" y1="57.08" x2="17.79" y2="66.14"/><line class="cls-1" x1="21.91" y1="68.21" x2="30.4" y2="64.89"/><circle class="cls-2" cx="6.64" cy="40.42" r="5.14"/><rect class="cls-3" x="6.12" y="7" width="27.39" height="10.21" rx="5.1" transform="translate(9.27 -8.58) rotate(31.57)"/><path class="cls-1" d="M19.2,57.12,17.25,16.75a.06.06,0,0,0-.11,0L8.22,35.53"/><line class="cls-1" x1="6.64" y1="45.56" x2="11.26" y2="58.59"/><rect class="cls-3" x="35.79" y="65.72" width="12.43" height="8.13" rx="4.06"/><line class="cls-1" x1="22.93" y1="71.28" x2="35.79" y2="70.49"/><line class="cls-1" x1="48.22" y1="69.79" x2="64.21" y2="68.21"/><line class="cls-1" x1="21.86" y1="7.37" x2="25.07" y2="3.13"/></g></svg>