<svg xmlns="http://www.w3.org/2000/svg" viewBox="0 0 174 150"><defs><style>.cls-1,.cls-2,.cls-3,.cls-4{fill:none;stroke-miterlimit:10;stroke-width:2px;}.cls-1{stroke:#231f20;}.cls-2,.cls-3{stroke:#49d5a7;}.cls-3{stroke-dasharray:5.04 5.04;}.cls-4{stroke:#000;}</style></defs><g id="logos"><path class="cls-1" d="M31.69,87.83a11.61,11.61,0,0,1-3.93,9.42,12.43,12.43,0,0,1-5.53,2.83c-2,.46-5.64,1.75-7,5.25-2,5-9,23-11,32"/><path class="cls-1" d="M10.19,140.33s13-15,12-28c0,0,3,14,2,35"/><path class="cls-1" d="M50.46,147.33s-2-17.5,2.38-34.75c0,0-1.65,10.75,11.35,27.75"/><path class="cls-1" d="M70.19,136.33s-5.71-14.27-7.84-22.4a9.92,9.92,0,0,1-.23-1.11,24.3,24.3,0,0,0-2.77-7.92,11.64,11.64,0,0,0-6.74-5.13A14.3,14.3,0,0,1,42.19,88.33"/><line class="cls-2" x1="36.69" y1="93" x2="36.69" y2="95.5"/><line class="cls-3" x1="36.69" y1="100.54" x2="36.69" y2="138.32"/><line class="cls-2" x1="36.69" y1="140.84" x2="36.69" y2="143.34"/><path class="cls-4" d="M108.08,37.76c.55,5.63,2.86,12.57,4,15.69a27.68,27.68,0,0,1,1.11,3.88c1.91,9.2.18,10.93.18,10.93-3,3-3,3-8,4a8.16,8.16,0,0,1-7.22-2.16,10.41,10.41,0,0,0-2.94-2A16.68,16.68,0,0,0,88,66.77a13.45,13.45,0,0,0-5.59,1.46,26.22,26.22,0,0,0-4.7,2.69,1.56,1.56,0,0,1-.87.48c-1.7.41-7.14,1.53-10.48-.14a9.66,9.66,0,0,0-8,0s-8.5,3.5-9.5-1.5,3-5,3-5a12.77,12.77,0,0,0,4.65-.85,2.05,2.05,0,0,0,.59-.38,10.86,10.86,0,0,1,6.76-2.77c1.35,0,2.7-1,3.78-2.13a30.32,30.32,0,0,1,12.09-7.81c1.66-.56,2.94-.9,3.41-1a2.92,2.92,0,0,0,.38-.14l.67-.33a2.07,2.07,0,0,0,.32-.19,18.46,18.46,0,0,0,7.35-11.39"/><path class="cls-4" d="M90.13,17.28a1.92,1.92,0,0,0-.75-.77c-1.37-.79-5.18-3.27-3.53-5.75A4.46,4.46,0,0,1,89.67,8.6a2.11,2.11,0,0,0,1.76-.91c.84-1.23,2.55-2.88,5.16-1.12a2,2,0,0,1,.53.55c.43.68,1.13,2.34,0,5a2,2,0,0,0,0,1.44l2.61,6.92.6,1.8s0,1.91-1.52,1.67a2.05,2.05,0,0,0-2.13.92c-.5.83-1.28,1.48-2.35.41C94.35,25.26,92.5,21.56,90.13,17.28Z"/><line class="cls-2" x1="84.78" y1="25.82" x2="89.85" y2="26.76"/><line class="cls-2" x1="85.44" y1="31.43" x2="90.85" y2="29.76"/><line class="cls-2" x1="87.85" y1="36.76" x2="91.85" y2="32.76"/><line class="cls-2" x1="103.85" y1="22.76" x2="106.85" y2="18.76"/><line class="cls-2" x1="105.35" y1="25.82" x2="110.85" y2="23.76"/><line class="cls-2" x1="105.85" y1="29.76" x2="111.85" y2="30.76"/><path class="cls-4" d="M95.85,46.76,95.93,32s2.29-3,3.51-.69a.36.36,0,0,0,.62,0c.49-1,1.6-2.15,3.53.79V46.91s2.76,2.35,2.76,4.35-1,6.77-6.5,2.88c0,0-5.5,4.12-6.5-1.88A8.47,8.47,0,0,1,95.85,46.76Z"/><path class="cls-1" d="M130.93,86.49A11.58,11.58,0,0,1,127,95.9a12.23,12.23,0,0,1-5.53,2.83c-2,.47-5.64,1.76-7,5.26-2,5-9,23-11,32"/><path class="cls-1" d="M109.43,139s13-15,12-28c0,0,3,14,2,35"/><path class="cls-1" d="M149.69,146s-2-17.5,2.39-34.75c0,0-1.65,10.75,11.35,27.75"/><path class="cls-1" d="M169.43,135s-5.71-14.27-7.85-22.4c-.09-.37-.16-.73-.22-1.11a24.3,24.3,0,0,0-2.77-7.92,11.67,11.67,0,0,0-6.74-5.13A14.3,14.3,0,0,1,141.43,87"/><line class="cls-2" x1="134.43" y1="92.99" x2="137.43" y2="96.99"/><path class="cls-2" d="M138.43,99a32.77,32.77,0,0,1,1.5,5.82"/><path class="cls-2" d="M139.18,112.64s1.25-3.25.75-5.45"/><path class="cls-2" d="M138.43,115a7.65,7.65,0,0,0-2,5"/><path class="cls-2" d="M135.93,122.85a35.54,35.54,0,0,0-1.5,5.11"/><path class="cls-2" d="M134.43,130a14.73,14.73,0,0,0-.48,6"/><path class="cls-2" d="M134.12,138.34s.31,3.35,1.81,4"/><polyline class="cls-4" points="89.53 96.99 96.81 104.81 89.53 113.98"/><line class="cls-4" x1="96.81" y1="104.81" x2="73.06" y2="104.81"/></g></svg>