<svg xmlns="http://www.w3.org/2000/svg" viewBox="0 0 70.08 63.13"><defs><style>.cls-1,.cls-2,.cls-3{fill:none;stroke-miterlimit:10;stroke-width:2px;}.cls-1{stroke:#231f20;}.cls-2,.cls-3{stroke:#49d5a7;}.cls-3{stroke-dasharray:5.04 5.04;}</style></defs><g id="logos"><path class="cls-1" d="M29.88,1.6A11.61,11.61,0,0,1,26,11a12.43,12.43,0,0,1-5.53,2.83c-2,.46-5.64,1.75-7,5.25-2,5-9,23-11,32"/><path class="cls-1" d="M8.38,54.1s13-15,12-28c0,0,3,14,2,35"/><path class="cls-1" d="M48.64,61.1s-2-17.5,2.39-34.75c0,0-1.65,10.75,11.35,27.75"/><path class="cls-1" d="M68.38,50.1s-5.71-14.27-7.85-22.39c-.09-.37-.16-.74-.23-1.12a23.86,23.86,0,0,0-2.76-7.91,11.63,11.63,0,0,0-6.74-5.13A14.33,14.33,0,0,1,40.38,2.1"/><line class="cls-2" x1="34.88" y1="6.77" x2="34.88" y2="9.27"/><line class="cls-3" x1="34.88" y1="14.31" x2="34.88" y2="52.1"/><line class="cls-2" x1="34.88" y1="54.62" x2="34.88" y2="57.12"/></g></svg>