<svg xmlns="http://www.w3.org/2000/svg" viewBox="0 0 174 150"><defs><style>.cls-1{fill:none;}.cls-1,.cls-2{stroke:#000;stroke-miterlimit:10;stroke-width:2px;}.cls-2{fill:#49bdd5;}</style></defs><g id="logos"><path class="cls-1" d="M54.52,101.33s11,8,10,19"/><path class="cls-1" d="M89.52,119.33s-8.48-9-25.24-3.49"/><path class="cls-1" d="M51,134.83a32.1,32.1,0,0,0,5,3c9,2,29,0,29,0a102.3,102.3,0,0,0,11-3c6-2,7-6,7-6,1-8,2-12.72,2-12.72,2-7.71,0-22.28,0-22.28a20.29,20.29,0,0,0-4.7-9.68,6.09,6.09,0,0,1-.54-.76C97.58,79.9,92,80.83,92,80.83s-7,3-9,7,1,6,4.12,6.39S94,91.83,94,91.83l1-1-1,13s-4.76,4.3-6.88,13.65"/><path class="cls-1" d="M14.49,71.84v-22A17.8,17.8,0,0,1,19,38.31c1-1,1-3.36,1-3.36V12.31h33.5V35s0,2.36,1,3.36A17.8,17.8,0,0,1,59,49.81v22"/><path class="cls-2" d="M36.74,62.71,14.65,47.58a53.06,53.06,0,0,1,1.91-5.78s20.07,6.54,40.5.27c0,0,2.42,5,1.92,7.36L36.74,62.71v9.77"/><rect class="cls-1" x="35.49" y="31.81" width="2.52" height="2.46"/><polyline class="cls-1" points="11.49 23.81 15.49 29.81 11.49 35.81"/><line class="cls-1" x1="1.49" y1="29.81" x2="15.49" y2="29.81"/><polyline class="cls-1" points="62.49 22.81 58.49 29.81 62.49 35.81"/><line class="cls-1" x1="71.49" y1="29.81" x2="58.49" y2="29.81"/><path class="cls-1" d="M113,10.31s2,6.88,0,10.29c-1.85,3.1-7.43,10.82-8.51,17.66C103.24,46,110.53,67,110.53,67"/><path class="cls-1" d="M148.21,12.33s-1.35,6.48.67,9.89c1.85,3.1,7.43,10.82,8.51,17.66,1.21,7.69-6.08,28.76-6.08,28.76"/><path class="cls-2" d="M110.85,24H150s4.67,6.89,6.32,11.8c0,0-13.18,10.58-20.77,19.07a6.71,6.71,0,0,1-10.31-.39A90.68,90.68,0,0,0,105,35.89S107.51,28.31,110.85,24Z"/><path class="cls-1" d="M146.59,52.84s-8.1,8.1-16.21-1.62"/><path class="cls-1" d="M117.42,53.65s8.86,4.79,15.37,0"/><line class="cls-1" x1="131.19" y1="67.83" x2="131.19" y2="56.89"/><polyline class="cls-1" points="86.02 34.83 93.02 27.83 99.29 34.83"/><line class="cls-1" x1="92.66" y1="42.03" x2="93.02" y2="27.83"/><polyline class="cls-1" points="160.92 34.82 167.92 27.82 174.19 34.82"/><line class="cls-1" x1="167.56" y1="42.02" x2="167.92" y2="27.82"/></g></svg>