<svg id="Layer_1" data-name="Layer 1" xmlns="http://www.w3.org/2000/svg" width="210mm" height="210mm" viewBox="0 0 595.28 595.28"><path d="M151.5,367c-2.7,0-5.45.33-8.1-.05q-42.33-6.09-84.63-12.39c-10.46-1.56-20.91-3.22-31.32-5.06a42.83,42.83,0,0,1-8.36-2.87,20.81,20.81,0,0,1-3.53-2.5c4.9-2,9.23-3.83,13.63-5.49q31.7-12,63.44-23.8c3.93-1.46,8.07-2.37,12.11-3.58a6.21,6.21,0,0,1,7.36,2.32c3.38,4.41,6.83,8.77,10.18,13.21q14.08,18.69,28.12,37.42c.42.57.81,1.17,1.22,1.76Z"/><path d="M15.19,340.88c-.93-2.7.54-4.2,2-5.73,13.31-14.47,26.57-29,39.93-43.39q29.45-31.81,59-63.51a12.51,12.51,0,0,1,3.52-2.82c2.19-1.07,3.35-.16,2.87,2.24-3.24,16.35-6.38,32.74-9.93,49-1.25,5.75-3.46,11.3-5.39,16.89a15.15,15.15,0,0,1-7.55,9.09c-9.06,4.52-18,9.31-27.22,13.45-18.25,8.18-36.67,16-55,23.95C16.72,340.36,16.05,340.57,15.19,340.88Z"/><path d="M126.44,227a23.68,23.68,0,0,1,1.9,4.3q3.1,13.64,6,27.32c4.26,20.55,8.44,41.11,12.68,61.67,2.56,12.48,5.24,24.93,7.68,37.43.42,2.13-.09,4.44-.17,6.67l-.88.05a8.33,8.33,0,0,1-1-1.17c-10.94-18.64-21.8-37.33-32.84-55.92-2.7-4.55-3-9.31-2.39-14.27q4-32.46,8-64.91a6.17,6.17,0,0,1,.31-1Z"/><path d="M234.74,294.47,220.36,253h-.27q.57,9.22.57,17.31v24.12H213.3V244.86h11.44l13.77,39.47h.2l14.19-39.47h11.47v49.61h-7.81V269.94q0-3.7.19-9.64c.12-4,.23-6.35.32-7.19h-.27l-14.9,41.36Z"/><path d="M306.19,294.47H278.12V244.86h28.07v6.86h-20v13.5h18.7V272h-18.7v15.57h20Z"/><path d="M313.5,279.24v-6.79h17.44v6.79Z"/><path d="M362.1,294.47,347.71,253h-.27q.58,9.22.58,17.31v24.12h-7.36V244.86h11.43l13.78,39.47h.2l14.18-39.47h11.47v49.61h-7.8V269.94q0-3.7.19-9.64c.12-4,.23-6.35.32-7.19h-.27l-14.9,41.36Z"/><path d="M449.52,269.6q0,12.12-6,18.83t-17.16,6.72q-11.22,0-17.25-6.67t-6-19q0-12.28,6-18.86t17.29-6.59q11.07,0,17.1,6.69T449.52,269.6Zm-37.86,0q0,9.16,3.69,13.89t11,4.74q7.23,0,10.91-4.69t3.68-13.94q0-9.12-3.64-13.84T426.38,251q-7.29,0-11,4.72T411.66,269.6Z"/><path d="M489.13,244.86h8.42l-17.37,49.61h-8.55l-17.31-49.61h8.35L473,275.71q.81,2.21,1.73,5.68c.61,2.32,1,4,1.19,5.17q.44-2.56,1.35-6t1.5-5Z"/><path d="M532.85,294.47H504.79V244.86h28.06v6.86h-20v13.5h18.7V272H512.9v15.57h20Z"/><path d="M552.38,274.66v19.81h-8.11V244.86h14c6.41,0,11.14,1.2,14.22,3.6s4.62,6,4.62,10.86q0,9.26-9.64,13.2l14,22h-9.23l-11.87-19.81Zm0-6.72H558q5.67,0,8.21-2.11a7.61,7.61,0,0,0,2.55-6.24c0-2.8-.92-4.82-2.75-6s-4.59-1.83-8.28-1.83h-5.36Z"/><path d="M217.39,356.69h-2.94V314.52h23.1v2.72H217.39v17.88h19v2.74h-19Z"/><path d="M243,316.63c0-1.85.61-2.77,1.82-2.77a1.63,1.63,0,0,1,1.4.72,3.61,3.61,0,0,1,.5,2.05,3.7,3.7,0,0,1-.5,2.05,1.61,1.61,0,0,1-1.4.75C243.58,319.43,243,318.49,243,316.63Zm3.26,40.06h-2.86V325.34h2.86Z"/><path d="M265,354.73a21.84,21.84,0,0,0,4.73-.46v2.3a14.85,14.85,0,0,1-4.78.7q-4.15,0-6.13-2.22t-2-7V327.82H252.2v-1.67l4.64-1.3,1.45-7.1h1.47v7.59H269v2.48h-9.2v19.84A9.12,9.12,0,0,0,261,353,4.63,4.63,0,0,0,265,354.73Z"/><path d="M298.37,356.69V336.36q0-4.74-2-6.88t-6.17-2.15q-5.62,0-8.23,2.84c-1.74,1.89-2.61,5-2.61,9.21v17.31h-2.86V325.34h2.43l.54,4.3h.18q3-4.9,10.87-4.91,10.67,0,10.67,11.45v20.51Z"/><path d="M324,357.27c-4.55,0-8.11-1.41-10.65-4.21s-3.82-6.74-3.82-11.8,1.23-9,3.69-12a12.18,12.18,0,0,1,9.95-4.52,10.75,10.75,0,0,1,8.74,3.87q3.19,3.86,3.2,10.5v2.3H312.54q0,6.47,3,9.87t8.46,3.4a26.36,26.36,0,0,0,4.72-.37,28.71,28.71,0,0,0,5.15-1.62v2.6a23,23,0,0,1-4.91,1.57A27.07,27.07,0,0,1,324,357.27Zm-.83-30a9.4,9.4,0,0,0-7.27,3c-1.83,2-2.89,4.86-3.2,8.61h19.38q0-5.46-2.37-8.53A7.81,7.81,0,0,0,323.18,327.27Z"/><path d="M363.21,348.53A7.46,7.46,0,0,1,360,355q-3.21,2.26-9.09,2.27-6.29,0-10-1.94v-3.08a22,22,0,0,0,10,2.36q4.65,0,7.05-1.54a4.69,4.69,0,0,0,2.41-4.11,5,5,0,0,0-1.92-4,21,21,0,0,0-6.3-3.17,36.34,36.34,0,0,1-6.6-2.93,9.09,9.09,0,0,1-2.87-2.77,6.9,6.9,0,0,1-1-3.76,6.44,6.44,0,0,1,3-5.57c2-1.36,4.72-2,8.26-2a24.66,24.66,0,0,1,9.63,1.91l-1.06,2.59a22.57,22.57,0,0,0-8.57-1.9,12.33,12.33,0,0,0-6.08,1.27,3.89,3.89,0,0,0-2.25,3.52,4.88,4.88,0,0,0,1.74,3.92c1.16,1,3.44,2.08,6.82,3.29a33.08,33.08,0,0,1,6.17,2.75,9,9,0,0,1,2.9,2.78A6.77,6.77,0,0,1,363.21,348.53Z"/><path d="M390.72,348.53a7.44,7.44,0,0,1-3.2,6.47q-3.19,2.26-9.08,2.27c-4.2,0-7.52-.65-10-1.94v-3.08a22,22,0,0,0,10,2.36q4.63,0,7.05-1.54A4.71,4.71,0,0,0,387.9,349a5,5,0,0,0-1.92-4,21.1,21.1,0,0,0-6.3-3.17,36.18,36.18,0,0,1-6.61-2.93,9.2,9.2,0,0,1-2.87-2.77,7,7,0,0,1-1-3.76,6.43,6.43,0,0,1,2.95-5.57c2-1.36,4.73-2,8.27-2a24.74,24.74,0,0,1,9.63,1.91L389,329.23a22.57,22.57,0,0,0-8.56-1.9,12.37,12.37,0,0,0-6.09,1.27,3.89,3.89,0,0,0-2.25,3.52,4.88,4.88,0,0,0,1.74,3.92,24.39,24.39,0,0,0,6.83,3.29,33.71,33.71,0,0,1,6.17,2.75,9.13,9.13,0,0,1,2.9,2.78A6.85,6.85,0,0,1,390.72,348.53Z"/></svg>