<svg id="Layer_1" data-name="Layer 1" xmlns="http://www.w3.org/2000/svg" width="210mm" height="210mm" viewBox="0 0 595.28 595.28"><defs><style>.cls-1{fill:#fff;}</style></defs><rect y="252.07" width="595.28" height="185.63"/><path class="cls-1" d="M170.46,396.3a46.5,46.5,0,0,1-6.68,0q-34.86-5-69.69-10.2c-8.61-1.29-17.22-2.65-25.79-4.17a35.42,35.42,0,0,1-6.88-2.36,17.13,17.13,0,0,1-2.91-2.06c4-1.63,7.6-3.16,11.22-4.53q26.1-9.84,52.24-19.59c3.25-1.2,6.65-2,10-3a5.12,5.12,0,0,1,6.07,1.91c2.78,3.64,5.62,7.22,8.38,10.88Q158,378.58,169.55,394c.35.47.67,1,1,1.44Z"/><path class="cls-1" d="M58.2,374.81c-.76-2.22.45-3.46,1.61-4.72,11-11.91,21.88-23.85,32.88-35.73q24.25-26.19,48.6-52.3a10.24,10.24,0,0,1,2.9-2.32c1.8-.88,2.75-.13,2.36,1.84-2.67,13.47-5.26,27-8.18,40.38a124.07,124.07,0,0,1-4.43,13.91,12.53,12.53,0,0,1-6.23,7.48c-7.45,3.72-14.81,7.67-22.41,11.08-15,6.73-30.19,13.17-45.31,19.72C59.46,374.38,58.91,374.55,58.2,374.81Z"/><path class="cls-1" d="M149.82,281a20.08,20.08,0,0,1,1.56,3.54c1.7,7.49,3.36,15,4.92,22.5,3.51,16.92,6.95,33.86,10.44,50.79,2.11,10.27,4.31,20.53,6.32,30.82.35,1.75-.07,3.66-.13,5.49l-.73,0a6.75,6.75,0,0,1-.81-1c-9-15.35-17.95-30.74-27-46.05-2.23-3.75-2.47-7.67-2-11.75Q145.64,308.7,149,282a4.73,4.73,0,0,1,.25-.81Z"/><path class="cls-1" d="M239,336.59l-11.84-34.12h-.23q.48,7.61.48,14.25v19.87h-6.06V295.74h9.41l11.35,32.5h.16L254,295.74h9.45v40.85H257v-20.2q0-3,.15-7.94c.11-3.26.19-5.23.27-5.92h-.22L244.9,336.59Z"/><path class="cls-1" d="M297.83,336.59h-23.1V295.74h23.1v5.64H281.4V312.5h15.4v5.59H281.4v12.83h16.43Z"/><path class="cls-1" d="M303.85,324v-5.58h14.37V324Z"/><path class="cls-1" d="M343.88,336.59,332,302.47h-.22q.48,7.61.48,14.25v19.87h-6.07V295.74h9.42L347,328.24h.17l11.68-32.5h9.44v40.85h-6.42v-20.2q0-3,.15-7.94t.27-5.92H362l-12.26,34.06Z"/><path class="cls-1" d="M415.87,316.11q0,10-5,15.51t-14.12,5.53q-9.25,0-14.21-5.49t-5-15.61q0-10.11,5-15.53t14.24-5.42q9.1,0,14.08,5.5T415.87,316.11Zm-31.18,0q0,7.54,3,11.44c2,2.6,5,3.9,9,3.9s7-1.29,9-3.86,3-6.4,3-11.48-1-8.81-3-11.4-5-3.88-8.95-3.88-7,1.29-9.07,3.88S384.69,311.1,384.69,316.11Z"/><path class="cls-1" d="M448.49,295.74h6.93l-14.3,40.85h-7.05l-14.25-40.85h6.88l8.52,25.4q.67,1.82,1.42,4.68c.51,1.91.83,3.33,1,4.26q.38-2.13,1.12-4.92c.5-1.86.91-3.24,1.23-4.13Z"/><path class="cls-1" d="M484.49,336.59h-23.1V295.74h23.1v5.64H468.06V312.5h15.4v5.59h-15.4v12.83h16.43Z"/><path class="cls-1" d="M500.57,320.27v16.32H493.9V295.74h11.54q7.91,0,11.7,3t3.8,8.94q0,7.64-7.93,10.87l11.54,18.08H517l-9.78-16.32Zm0-5.53h4.64c3.11,0,5.37-.58,6.76-1.73a6.29,6.29,0,0,0,2.1-5.14q0-3.47-2.26-5c-1.51-1-3.78-1.51-6.82-1.51h-4.42Z"/><path class="cls-1" d="M224.71,387.83h-2.42V353.11h19v2.23h-16.6v14.72h15.68v2.26H224.71Z"/><path class="cls-1" d="M245.78,354.84q0-2.28,1.5-2.28a1.34,1.34,0,0,1,1.15.59,3,3,0,0,1,.41,1.69,3.06,3.06,0,0,1-.41,1.69,1.31,1.31,0,0,1-1.15.61C246.28,357.14,245.78,356.38,245.78,354.84Zm2.68,33h-2.35V362h2.35Z"/><path class="cls-1" d="M263.93,386.21a17.26,17.26,0,0,0,3.89-.38v1.91a12.45,12.45,0,0,1-3.94.56c-2.28,0-4-.6-5.05-1.82s-1.63-3.14-1.63-5.75V364.06h-3.82v-1.38l3.82-1.07,1.19-5.84h1.21V362h7.58v2.05H259.6V380.4a7.41,7.41,0,0,0,1,4.39A3.78,3.78,0,0,0,263.93,386.21Z"/><path class="cls-1" d="M291.4,387.83V371.09q0-3.9-1.63-5.67c-1.1-1.18-2.79-1.77-5.09-1.77-3.08,0-5.35.78-6.78,2.34s-2.15,4.09-2.15,7.59v14.25H273.4V362h2l.45,3.54H276q2.52-4,8.95-4,8.79,0,8.79,9.43v16.89Z"/><path class="cls-1" d="M312.52,388.3q-5.62,0-8.78-3.46t-3.14-9.72q0-6.17,3-9.89a10,10,0,0,1,8.19-3.72,8.87,8.87,0,0,1,7.2,3.19q2.63,3.18,2.63,8.64v1.9h-18.6c0,3.55.86,6.26,2.49,8.13a8.75,8.75,0,0,0,7,2.8,22.18,22.18,0,0,0,3.88-.31,23.92,23.92,0,0,0,4.24-1.33v2.14a19.08,19.08,0,0,1-4,1.29A22.28,22.28,0,0,1,312.52,388.3Zm-.69-24.7a7.74,7.74,0,0,0-6,2.46,11.6,11.6,0,0,0-2.63,7.09h16a11.26,11.26,0,0,0-1.95-7A6.45,6.45,0,0,0,311.83,363.6Z"/><path class="cls-1" d="M344.79,381.11a6.12,6.12,0,0,1-2.63,5.33q-2.64,1.86-7.48,1.86a17.85,17.85,0,0,1-8.22-1.59v-2.54a18.14,18.14,0,0,0,8.22,1.95,10.78,10.78,0,0,0,5.8-1.27,3.86,3.86,0,0,0,2-3.39,4.12,4.12,0,0,0-1.58-3.27,17.36,17.36,0,0,0-5.19-2.61,29.4,29.4,0,0,1-5.44-2.42,7.38,7.38,0,0,1-2.36-2.28,5.7,5.7,0,0,1-.8-3.09,5.3,5.3,0,0,1,2.43-4.59,11.9,11.9,0,0,1,6.81-1.69,20.44,20.44,0,0,1,7.93,1.57l-.88,2.14a18.48,18.48,0,0,0-7.05-1.57,10.14,10.14,0,0,0-5,1.05,3.18,3.18,0,0,0-1.85,2.89,4,4,0,0,0,1.43,3.24,20.08,20.08,0,0,0,5.62,2.7,27.73,27.73,0,0,1,5.08,2.27,7.42,7.42,0,0,1,2.39,2.29A5.62,5.62,0,0,1,344.79,381.11Z"/><path class="cls-1" d="M367.45,381.11a6.14,6.14,0,0,1-2.63,5.33c-1.76,1.24-4.26,1.86-7.48,1.86a17.82,17.82,0,0,1-8.22-1.59v-2.54a18.08,18.08,0,0,0,8.22,1.95,10.8,10.8,0,0,0,5.8-1.27,3.89,3.89,0,0,0,2-3.39,4.12,4.12,0,0,0-1.58-3.27,17.36,17.36,0,0,0-5.19-2.61,29.4,29.4,0,0,1-5.44-2.42,7.42,7.42,0,0,1-2.37-2.28,5.7,5.7,0,0,1-.79-3.09,5.3,5.3,0,0,1,2.43-4.59,11.88,11.88,0,0,1,6.81-1.69,20.47,20.47,0,0,1,7.93,1.57l-.88,2.14a18.48,18.48,0,0,0-7.05-1.57,10.14,10.14,0,0,0-5,1.05,3.19,3.19,0,0,0-1.86,2.89,4,4,0,0,0,1.44,3.24,20.08,20.08,0,0,0,5.62,2.7,27.73,27.73,0,0,1,5.08,2.27,7.42,7.42,0,0,1,2.39,2.29A5.62,5.62,0,0,1,367.45,381.11Z"/></svg>