<svg id="Layer_1" data-name="Layer 1" xmlns="http://www.w3.org/2000/svg" width="210mm" height="210mm" viewBox="0 0 595.28 595.28"><defs><style>.cls-1{fill:#00bed7;}</style></defs><path class="cls-1" d="M146.12,392c-2.82,0-5.68.34-8.44-.06Q93.6,385.56,49.55,379c-10.89-1.62-21.77-3.35-32.61-5.27a45.17,45.17,0,0,1-8.7-3c-1.16-.47-2.1-1.46-3.68-2.61,5.1-2.07,9.61-4,14.19-5.72q33-12.46,66.06-24.78c4.1-1.52,8.41-2.47,12.61-3.73a6.45,6.45,0,0,1,7.66,2.42c3.52,4.59,7.12,9.13,10.6,13.75q14.69,19.46,29.29,39c.44.59.84,1.22,1.27,1.83Z"/><path class="cls-1" d="M4.17,364.78c-1-2.81.56-4.38,2-6,13.86-15.06,27.67-30.16,41.58-45.18q30.66-33.12,61.45-66.13a13.11,13.11,0,0,1,3.67-2.94c2.28-1.11,3.48-.16,3,2.33-3.38,17-6.65,34.09-10.34,51.06-1.31,6-3.6,11.77-5.61,17.59A15.83,15.83,0,0,1,92.07,325c-9.43,4.71-18.74,9.7-28.35,14-19,8.52-38.18,16.65-57.28,24.94C5.76,364.23,5.06,364.45,4.17,364.78Z"/><path class="cls-1" d="M120,246.16a25.7,25.7,0,0,1,2,4.48c2.15,9.47,4.24,18.95,6.21,28.45q6.66,32.1,13.2,64.22c2.68,13,5.46,26,8,39,.43,2.22-.09,4.62-.18,6.94l-.91.06a9.12,9.12,0,0,1-1-1.22c-11.39-19.41-22.7-38.87-34.2-58.23-2.81-4.74-3.12-9.7-2.49-14.87q4.13-33.8,8.36-67.58a5.47,5.47,0,0,1,.32-1Z"/><path d="M232.8,316.45l-15-43.15h-.29q.6,9.61.6,18v25.13h-7.66V264.79h11.9l14.35,41.09h.21l14.77-41.09h11.94v51.66h-8.12V290.9q0-3.86.19-10c.13-4.13.24-6.62.34-7.5h-.29l-15.51,43.08Z"/><path d="M307.19,316.45H278V264.79h29.22v7.14H286.41V286h19.47v7.06H286.41v16.22h20.78Z"/><path d="M314.8,300.58v-7.07H333v7.07Z"/><path d="M365.42,316.45l-15-43.15h-.29q.6,9.61.6,18v25.13h-7.66V264.79H355l14.35,41.09h.21l14.77-41.09h11.94v51.66h-8.12V290.9q0-3.86.19-10c.13-4.13.24-6.62.34-7.5h-.29l-15.51,43.08Z"/><path d="M456.45,290.55q0,12.61-6.3,19.61t-17.87,7q-11.68,0-18-6.94t-6.27-19.73q0-12.8,6.3-19.65t18-6.85q11.5,0,17.8,7T456.45,290.55Zm-39.43,0q0,9.54,3.85,14.46t11.41,4.93q7.53,0,11.36-4.87t3.84-14.52q0-9.51-3.8-14.42t-11.32-4.91q-7.61,0-11.47,4.91T417,290.55Z"/><path d="M497.7,264.79h8.77l-18.09,51.66h-8.91l-18-51.66h8.69l10.78,32.12q.85,2.29,1.8,5.91t1.24,5.39c.3-1.79.78-3.86,1.41-6.22s1.16-4.09,1.56-5.23Z"/><path d="M543.23,316.45H514V264.79h29.22v7.14H522.45V286h19.47v7.06H522.45v16.22h20.78Z"/><path d="M563.56,295.81v20.64h-8.44V264.79h14.59q10,0,14.8,3.74t4.81,11.31q0,9.65-10,13.74l14.59,22.87h-9.61L571.9,295.81Zm0-7h5.87q5.9,0,8.55-2.19c1.76-1.46,2.65-3.62,2.65-6.5s-1-5-2.86-6.29-4.79-1.9-8.62-1.9h-5.59Z"/><path d="M214.73,381.24h-3.06V337.33h24.05v2.82h-21v18.62h19.82v2.86H214.73Z"/><path d="M241.37,339.52q0-2.88,1.89-2.88a1.69,1.69,0,0,1,1.46.75,3.68,3.68,0,0,1,.52,2.13,3.81,3.81,0,0,1-.52,2.14,1.67,1.67,0,0,1-1.46.78C242,342.44,241.37,341.47,241.37,339.52Zm3.39,41.72h-3V348.59h3Z"/><path d="M264.31,379.2a22.31,22.31,0,0,0,4.93-.48v2.4a15.76,15.76,0,0,1-5,.72q-4.32,0-6.38-2.31c-1.37-1.54-2.06-4-2.06-7.27V351.18H251v-1.75l4.83-1.35,1.51-7.39h1.53v7.9h9.58v2.59h-9.58v20.66a9.48,9.48,0,0,0,1.32,5.56A4.79,4.79,0,0,0,264.31,379.2Z"/><path d="M299.06,381.24V360.07q0-4.94-2.07-7.17t-6.43-2.23q-5.85,0-8.57,2.95c-1.81,2-2.72,5.17-2.72,9.6v18h-3V348.59h2.52l.57,4.48h.18q3.18-5.1,11.32-5.11Q302,348,302,359.89v21.35Z"/><path d="M325.76,381.84q-7.11,0-11.1-4.38t-4-12.29q0-7.8,3.84-12.51a12.7,12.7,0,0,1,10.36-4.7,11.16,11.16,0,0,1,9.1,4q3.33,4,3.33,10.93v2.4H313.81q.06,6.74,3.14,10.27t8.81,3.55a27.37,27.37,0,0,0,4.91-.39,29.2,29.2,0,0,0,5.36-1.69v2.71a23.85,23.85,0,0,1-5.1,1.63A28.4,28.4,0,0,1,325.76,381.84Zm-.87-31.23a9.79,9.79,0,0,0-7.57,3.1c-1.9,2.08-3,5.06-3.33,9h20.18c0-3.79-.82-6.74-2.46-8.88A8.13,8.13,0,0,0,324.89,350.61Z"/><path d="M366.58,372.74a7.77,7.77,0,0,1-3.34,6.74q-3.33,2.36-9.46,2.36-6.54,0-10.39-2v-3.22a22.83,22.83,0,0,0,10.39,2.47c3.23,0,5.67-.54,7.34-1.61a4.87,4.87,0,0,0,2.51-4.28,5.2,5.2,0,0,0-2-4.14,21.8,21.8,0,0,0-6.57-3.31,37.48,37.48,0,0,1-6.87-3.05,9.41,9.41,0,0,1-3-2.88,7.25,7.25,0,0,1-1-3.92,6.72,6.72,0,0,1,3.08-5.8q3.08-2.13,8.6-2.13a25.66,25.66,0,0,1,10,2l-1.12,2.7a23.51,23.51,0,0,0-8.92-2,12.9,12.9,0,0,0-6.33,1.32,4.06,4.06,0,0,0-2.35,3.66,5.1,5.1,0,0,0,1.82,4.09q1.82,1.53,7.1,3.42a34.7,34.7,0,0,1,6.43,2.87,9.26,9.26,0,0,1,3,2.9A7.08,7.08,0,0,1,366.58,372.74Z"/><path d="M395.23,372.74a7.75,7.75,0,0,1-3.34,6.74q-3.33,2.36-9.46,2.36-6.54,0-10.39-2v-3.22a22.86,22.86,0,0,0,10.39,2.47c3.23,0,5.67-.54,7.35-1.61a4.88,4.88,0,0,0,2.5-4.28,5.2,5.2,0,0,0-2-4.14,21.72,21.72,0,0,0-6.56-3.31,37.33,37.33,0,0,1-6.88-3.05,9.51,9.51,0,0,1-3-2.88,7.25,7.25,0,0,1-1-3.92,6.72,6.72,0,0,1,3.08-5.8Q379,348,384.54,348a25.65,25.65,0,0,1,10,2l-1.11,2.7a23.59,23.59,0,0,0-8.92-2A12.92,12.92,0,0,0,378.2,352a4.05,4.05,0,0,0-2.34,3.66,5.1,5.1,0,0,0,1.81,4.09q1.81,1.53,7.11,3.42A34.86,34.86,0,0,1,391.2,366a9.26,9.26,0,0,1,3,2.9A7.08,7.08,0,0,1,395.23,372.74Z"/></svg>