<svg id="Layer_1" data-name="Layer 1" xmlns="http://www.w3.org/2000/svg" width="210mm" height="210mm" viewBox="0 0 595.28 595.28"><defs><style>.cls-1{fill:#fff;}</style></defs><path class="cls-1" d="M148.28,398c-2.7,0-5.45.33-8.1,0q-42.33-6.09-84.63-12.39c-10.46-1.56-20.91-3.21-31.32-5.06a42.6,42.6,0,0,1-8.36-2.87,20.24,20.24,0,0,1-3.53-2.5c4.9-2,9.23-3.83,13.62-5.49q31.71-12,63.44-23.8c3.94-1.46,8.08-2.37,12.11-3.58a6.22,6.22,0,0,1,7.37,2.32c3.37,4.42,6.83,8.77,10.17,13.21q14.1,18.69,28.13,37.42c.42.57.81,1.17,1.21,1.76Z"/><path class="cls-1" d="M12,371.92c-.93-2.7.53-4.2,1.95-5.73,13.31-14.47,26.57-29,39.92-43.39q29.46-31.82,59-63.51a12.51,12.51,0,0,1,3.52-2.82c2.19-1.07,3.34-.16,2.87,2.24-3.24,16.36-6.39,32.74-9.93,49-1.25,5.75-3.46,11.3-5.39,16.89a15.18,15.18,0,0,1-7.55,9.09c-9.06,4.52-18,9.31-27.22,13.45-18.25,8.18-36.67,16-55,23.95C13.5,371.4,12.82,371.61,12,371.92Z"/><path class="cls-1" d="M123.22,258a24.39,24.39,0,0,1,1.9,4.3c2.06,9.09,4.07,18.19,6,27.32,4.26,20.55,8.44,41.12,12.67,61.67,2.57,12.48,5.24,24.93,7.69,37.43.41,2.13-.09,4.44-.17,6.67l-.88,0a8.33,8.33,0,0,1-1-1.17c-10.94-18.64-21.81-37.33-32.84-55.92-2.71-4.55-3-9.31-2.39-14.27q3.94-32.46,8-64.91a5.29,5.29,0,0,1,.31-1Z"/><path class="cls-1" d="M231.52,325.51l-14.38-41.43h-.28c.39,6.16.58,11.92.58,17.31v24.12h-7.36v-49.6h11.43l13.78,39.46h.2l14.18-39.46h11.47v49.6h-7.8V301q0-3.71.19-9.64t.32-7.19h-.27l-14.9,41.36Z"/><path class="cls-1" d="M303,325.51H274.9v-49.6H303v6.85H283v13.5h18.7v6.79H283v15.57H303Z"/><path class="cls-1" d="M310.27,310.28v-6.79h17.44v6.79Z"/><path class="cls-1" d="M358.88,325.51l-14.39-41.43h-.27c.38,6.16.58,11.92.58,17.31v24.12h-7.37v-49.6h11.44l13.77,39.46h.21L377,275.91H388.5v49.6h-7.8V301q0-3.71.18-9.64c.13-3.95.23-6.35.33-7.19h-.28L366,325.51Z"/><path class="cls-1" d="M446.3,300.64q0,12.12-6.06,18.83t-17.15,6.72q-11.23,0-17.25-6.67t-6-18.95q0-12.29,6.06-18.86t17.29-6.59q11.05,0,17.1,6.69T446.3,300.64Zm-37.87,0q0,9.17,3.7,13.9t11,4.73q7.23,0,10.91-4.68c2.45-3.13,3.68-7.77,3.68-13.95s-1.21-10.7-3.65-13.84-6-4.72-10.87-4.72-8.53,1.57-11,4.72S408.43,294.56,408.43,300.64Z"/><path class="cls-1" d="M485.91,275.91h8.42L477,325.51H468.4l-17.3-49.6h8.35l10.35,30.84q.81,2.21,1.73,5.68c.61,2.32,1,4,1.18,5.18q.45-2.58,1.36-6t1.49-5Z"/><path class="cls-1" d="M529.63,325.51H501.57v-49.6h28.06v6.85H509.68v13.5h18.7v6.79h-18.7v15.57h19.95Z"/><path class="cls-1" d="M549.16,305.7v19.81h-8.11v-49.6h14q9.6,0,14.22,3.59t4.61,10.86q0,9.27-9.63,13.2l14,21.95H569L557.17,305.7Zm0-6.72h5.63c3.78,0,6.51-.7,8.21-2.11a7.61,7.61,0,0,0,2.55-6.24c0-2.8-.92-4.82-2.75-6s-4.59-1.83-8.28-1.83h-5.36Z"/><path class="cls-1" d="M214.17,387.73h-2.95V345.57h23.11v2.71H214.17v17.88h19v2.74h-19Z"/><path class="cls-1" d="M239.75,347.67c0-1.85.6-2.77,1.81-2.77a1.6,1.6,0,0,1,1.4.72,3.53,3.53,0,0,1,.51,2.05,3.59,3.59,0,0,1-.51,2.05,1.59,1.59,0,0,1-1.4.75C240.35,350.47,239.75,349.54,239.75,347.67ZM243,387.73h-2.86V356.38H243Z"/><path class="cls-1" d="M261.78,385.77a21.23,21.23,0,0,0,4.73-.46v2.31a15.16,15.16,0,0,1-4.79.69c-2.76,0-4.81-.74-6.12-2.22s-2-3.81-2-7V358.86H249v-1.67l4.64-1.3,1.44-7.1h1.47v7.59h9.2v2.48h-9.2V378.7A9.12,9.12,0,0,0,257.8,384,4.62,4.62,0,0,0,261.78,385.77Z"/><path class="cls-1" d="M295.15,387.73V367.4q0-4.74-2-6.88T287,358.37q-5.62,0-8.23,2.84c-1.75,1.9-2.61,5-2.61,9.22v17.3h-2.86V356.38h2.42l.55,4.3h.17q3.06-4.9,10.88-4.91,10.67,0,10.67,11.45v20.51Z"/><path class="cls-1" d="M320.79,388.31q-6.84,0-10.66-4.21t-3.82-11.8q0-7.5,3.7-12a12.18,12.18,0,0,1,9.95-4.52,10.72,10.72,0,0,1,8.73,3.87q3.21,3.87,3.2,10.5v2.3H309.31q.06,6.46,3,9.87t8.46,3.4a26.36,26.36,0,0,0,4.72-.37,28.4,28.4,0,0,0,5.14-1.62v2.6a22.78,22.78,0,0,1-4.9,1.57A27.07,27.07,0,0,1,320.79,388.31Zm-.83-30a9.39,9.39,0,0,0-7.27,3q-2.74,3-3.2,8.61h19.38q0-5.46-2.37-8.53A7.82,7.82,0,0,0,320,358.31Z"/><path class="cls-1" d="M360,379.57a7.43,7.43,0,0,1-3.21,6.47q-3.19,2.26-9.08,2.27c-4.19,0-7.52-.65-10-1.93v-3.09a22,22,0,0,0,10,2.36q4.65,0,7.05-1.54a4.69,4.69,0,0,0,2.41-4.11,5,5,0,0,0-1.92-4,21.1,21.1,0,0,0-6.3-3.17,36,36,0,0,1-6.6-2.93,9.09,9.09,0,0,1-2.87-2.77,6.9,6.9,0,0,1-1-3.76,6.42,6.42,0,0,1,3-5.57c2-1.36,4.72-2.05,8.26-2.05a24.74,24.74,0,0,1,9.63,1.91l-1.07,2.59a22.53,22.53,0,0,0-8.56-1.9,12.37,12.37,0,0,0-6.09,1.27,3.9,3.9,0,0,0-2.25,3.52,4.89,4.89,0,0,0,1.75,3.92q1.74,1.47,6.82,3.29a34.08,34.08,0,0,1,6.17,2.75,9,9,0,0,1,2.9,2.79A6.82,6.82,0,0,1,360,379.57Z"/><path class="cls-1" d="M387.5,379.57a7.45,7.45,0,0,1-3.2,6.47c-2.14,1.51-5.16,2.27-9.09,2.27-4.19,0-7.51-.65-10-1.93v-3.09a22,22,0,0,0,10,2.36q4.65,0,7.05-1.54a4.69,4.69,0,0,0,2.41-4.11,5,5,0,0,0-1.91-4,21,21,0,0,0-6.31-3.17,36.34,36.34,0,0,1-6.6-2.93,9.09,9.09,0,0,1-2.87-2.77,7,7,0,0,1-1-3.76,6.44,6.44,0,0,1,3-5.57c2-1.36,4.72-2.05,8.26-2.05a24.75,24.75,0,0,1,9.64,1.91l-1.07,2.59a22.57,22.57,0,0,0-8.57-1.9,12.33,12.33,0,0,0-6.08,1.27,3.9,3.9,0,0,0-2.25,3.52,4.88,4.88,0,0,0,1.74,3.92c1.16,1,3.44,2.08,6.82,3.29a33.76,33.76,0,0,1,6.17,2.75,9,9,0,0,1,2.9,2.79A6.74,6.74,0,0,1,387.5,379.57Z"/></svg>