<svg id="Layer_1" data-name="Layer 1" xmlns="http://www.w3.org/2000/svg" width="210mm" height="210mm" viewBox="0 0 595.28 595.28"><defs><style>.cls-1{fill:#00bed7;}.cls-2{fill:#fff;}</style></defs><rect class="cls-1" y="269" width="594.51" height="185.39"/><path class="cls-2" d="M170.24,413a46.36,46.36,0,0,1-6.67,0q-34.81-5-69.6-10.19c-8.6-1.28-17.2-2.64-25.76-4.16a35.33,35.33,0,0,1-6.87-2.36,17.11,17.11,0,0,1-2.9-2.06c4-1.63,7.58-3.15,11.2-4.52q26.07-9.82,52.18-19.57c3.23-1.2,6.64-1.95,10-2.94a5.09,5.09,0,0,1,6.05,1.91c2.78,3.63,5.62,7.21,8.37,10.86q11.6,15.38,23.13,30.78c.35.47.67,1,1,1.44Z"/><path class="cls-2" d="M58.13,391.58c-.76-2.22.44-3.46,1.6-4.72Q76.16,369,92.57,351.18,116.8,325,141.1,298.94a10.41,10.41,0,0,1,2.9-2.32c1.8-.87,2.75-.12,2.36,1.85-2.66,13.45-5.25,26.92-8.17,40.32a123.91,123.91,0,0,1-4.43,13.9,12.45,12.45,0,0,1-6.21,7.47c-7.45,3.71-14.8,7.66-22.39,11.06-15,6.73-30.15,13.15-45.24,19.7C59.39,391.15,58.83,391.32,58.13,391.58Z"/><path class="cls-2" d="M149.62,297.9a19.13,19.13,0,0,1,1.57,3.54q2.55,11.21,4.91,22.46,5.25,25.37,10.42,50.73c2.11,10.26,4.31,20.5,6.32,30.78.34,1.75-.07,3.65-.13,5.48l-.73.05a8.08,8.08,0,0,1-.81-1c-9-15.34-17.93-30.71-27-46-2.22-3.75-2.46-7.66-2-11.74q3.26-26.7,6.59-53.39a5,5,0,0,1,.26-.8Z"/><path class="cls-2" d="M238.7,353.41l-11.83-34.07h-.23q.48,7.59.48,14.23v19.84h-6.06v-40.8h9.41l11.32,32.45H242l11.67-32.45h9.43v40.8h-6.42V333.23c0-2,.05-4.67.15-7.92s.19-5.23.27-5.92h-.22l-12.25,34Z"/><path class="cls-2" d="M297.45,353.41H274.37v-40.8h23.08v5.64H281v11.1h15.38v5.58H281v12.81h16.41Z"/><path class="cls-2" d="M303.46,340.88V335.3h14.35v5.58Z"/><path class="cls-2" d="M343.44,353.41l-11.83-34.07h-.23q.48,7.59.48,14.23v19.84H325.8v-40.8h9.41l11.33,32.45h.16l11.67-32.45h9.43v40.8h-6.42V333.23c0-2,.05-4.67.16-7.92s.19-5.23.26-5.92h-.22l-12.25,34Z"/><path class="cls-2" d="M415.34,333q0,10-5,15.49T396.25,354q-9.24,0-14.19-5.49t-4.95-15.58q0-10.11,5-15.52T396.31,312q9.09,0,14.06,5.5T415.34,333Zm-31.15,0q0,7.55,3.05,11.43t9,3.89q5.94,0,9-3.85t3-11.47q0-7.5-3-11.38t-8.94-3.88q-6,0-9.06,3.88T384.19,333Z"/><path class="cls-2" d="M447.92,312.61h6.92l-14.29,40.8h-7l-14.23-40.8h6.86L434.66,338c.45,1.21.92,2.76,1.42,4.67s.83,3.33,1,4.26c.24-1.42.62-3.05,1.12-4.91s.91-3.24,1.23-4.13Z"/><path class="cls-2" d="M483.87,353.41H460.79v-40.8h23.08v5.64H467.46v11.1h15.38v5.58H467.46v12.81h16.41Z"/><path class="cls-2" d="M499.93,337.11v16.3h-6.67v-40.8h11.53q7.89,0,11.69,3t3.79,8.93q0,7.62-7.92,10.85l11.52,18.06h-7.59l-9.76-16.3Zm0-5.52h4.63q4.67,0,6.76-1.73a6.31,6.31,0,0,0,2.09-5.14q0-3.45-2.26-5t-6.81-1.5h-4.41Z"/><path class="cls-2" d="M224.42,404.58H222V369.9h19v2.23H224.42v14.71h15.66v2.25H224.42Z"/><path class="cls-2" d="M245.46,371.63c0-1.51.5-2.27,1.5-2.27a1.32,1.32,0,0,1,1.15.59,2.88,2.88,0,0,1,.41,1.68,3,3,0,0,1-.41,1.69,1.31,1.31,0,0,1-1.15.61C246,373.93,245.46,373.17,245.46,371.63Zm2.68,32.95H245.8V378.8h2.34Z"/><path class="cls-2" d="M263.59,403a17.86,17.86,0,0,0,3.89-.38v1.9a12.79,12.79,0,0,1-3.94.56c-2.28,0-4-.6-5-1.82s-1.63-3.13-1.63-5.74V380.84h-3.82v-1.38l3.82-1.07,1.19-5.83h1.21v6.24h7.57v2h-7.57v16.32a7.48,7.48,0,0,0,1,4.38A3.8,3.8,0,0,0,263.59,403Z"/><path class="cls-2" d="M291,404.58V387.86c0-2.6-.55-4.48-1.64-5.66s-2.78-1.77-5.07-1.77c-3.09,0-5.34.78-6.78,2.34s-2.14,4.08-2.14,7.58v14.23h-2.35V378.8h2l.45,3.53h.15q2.5-4,8.94-4,8.78,0,8.77,9.42v16.86Z"/><path class="cls-2" d="M312.12,405.05q-5.62,0-8.77-3.46t-3.14-9.7q0-6.17,3-9.88a10.06,10.06,0,0,1,8.19-3.71,8.85,8.85,0,0,1,7.19,3.18c1.75,2.12,2.63,5,2.63,8.63V392H302.68q0,5.31,2.47,8.11a8.73,8.73,0,0,0,7,2.8,21.06,21.06,0,0,0,3.87-.31,23.11,23.11,0,0,0,4.24-1.33v2.14a19.19,19.19,0,0,1-4,1.29A22.44,22.44,0,0,1,312.12,405.05Zm-.69-24.66a7.72,7.72,0,0,0-6,2.45,11.59,11.59,0,0,0-2.63,7.08h15.94a11.23,11.23,0,0,0-1.95-7A6.41,6.41,0,0,0,311.43,380.39Z"/><path class="cls-2" d="M344.35,397.87a6.13,6.13,0,0,1-2.63,5.32q-2.64,1.86-7.47,1.86a17.81,17.81,0,0,1-8.21-1.59v-2.53a18.19,18.19,0,0,0,8.21,1.94,10.8,10.8,0,0,0,5.8-1.27,3.85,3.85,0,0,0,2-3.38,4.14,4.14,0,0,0-1.58-3.27,17.15,17.15,0,0,0-5.18-2.61,28.69,28.69,0,0,1-5.43-2.41,7.36,7.36,0,0,1-2.36-2.27,5.65,5.65,0,0,1-.8-3.1,5.3,5.3,0,0,1,2.43-4.58,11.85,11.85,0,0,1,6.8-1.68,20.41,20.41,0,0,1,7.92,1.56L343,382a18.66,18.66,0,0,0-7-1.57,10.17,10.17,0,0,0-5,1.05,3.2,3.2,0,0,0-1.85,2.89,4,4,0,0,0,1.44,3.23,20.12,20.12,0,0,0,5.61,2.7,27.21,27.21,0,0,1,5.07,2.27,7.32,7.32,0,0,1,2.39,2.29A5.56,5.56,0,0,1,344.35,397.87Z"/><path class="cls-2" d="M367,397.87a6.13,6.13,0,0,1-2.63,5.32q-2.64,1.86-7.47,1.86a17.81,17.81,0,0,1-8.21-1.59v-2.53a18.19,18.19,0,0,0,8.21,1.94,10.8,10.8,0,0,0,5.8-1.27,3.85,3.85,0,0,0,2-3.38,4.14,4.14,0,0,0-1.58-3.27,17.15,17.15,0,0,0-5.18-2.61,29.17,29.17,0,0,1-5.44-2.41,7.57,7.57,0,0,1-2.36-2.27,5.74,5.74,0,0,1-.79-3.1,5.3,5.3,0,0,1,2.43-4.58,11.85,11.85,0,0,1,6.8-1.68,20.41,20.41,0,0,1,7.92,1.56l-.88,2.14a18.66,18.66,0,0,0-7-1.57,10.17,10.17,0,0,0-5,1.05,3.2,3.2,0,0,0-1.85,2.89,4,4,0,0,0,1.44,3.23,20.12,20.12,0,0,0,5.61,2.7,27.21,27.21,0,0,1,5.07,2.27,7.32,7.32,0,0,1,2.39,2.29A5.56,5.56,0,0,1,367,397.87Z"/></svg>