<svg xmlns="http://www.w3.org/2000/svg" viewBox="0 0 577 148"><defs><style>.cls-1{stroke:#000;stroke-miterlimit:10;}</style></defs><g id="logos"><path d="M141.74,143.9c-2.7,0-5.45.33-8.1-.05Q91.31,137.76,49,131.46c-10.46-1.56-20.91-3.22-31.32-5.06a43.46,43.46,0,0,1-8.36-2.87A21.26,21.26,0,0,1,5.8,121c4.9-2,9.23-3.83,13.63-5.49q31.71-12,63.44-23.8c3.93-1.46,8.07-2.37,12.11-3.58a6.2,6.2,0,0,1,7.36,2.32c3.38,4.41,6.83,8.77,10.18,13.21q14.08,18.69,28.12,37.42c.42.57.81,1.17,1.22,1.76Z"/><path d="M5.43,117.78c-.93-2.7.54-4.2,2-5.73C20.74,97.58,34,83.05,47.36,68.66q29.46-31.81,59-63.51a12.61,12.61,0,0,1,3.52-2.82c2.19-1.07,3.35-.16,2.87,2.24-3.24,16.35-6.38,32.74-9.93,49-1.25,5.75-3.46,11.3-5.39,16.89a15.1,15.1,0,0,1-7.55,9.09c-9.06,4.52-18,9.31-27.22,13.45-18.25,8.18-36.67,16-55,24C7,117.26,6.29,117.47,5.43,117.78Z"/><path d="M116.68,3.9a23.54,23.54,0,0,1,1.9,4.3q3.11,13.64,6,27.32c4.26,20.55,8.44,41.11,12.68,61.67,2.56,12.48,5.24,24.93,7.68,37.43.42,2.13-.09,4.44-.17,6.67l-.88.05a8.58,8.58,0,0,1-1-1.17c-10.94-18.64-21.8-37.33-32.84-55.92-2.7-4.55-3-9.31-2.39-14.27q4-32.46,8-64.91a6.82,6.82,0,0,1,.31-1Z"/><path class="cls-1" d="M225,71.37,210.6,29.9h-.27q.57,9.23.57,17.31V71.33h-7.36V21.76H215l13.77,39.47h.2l14.19-39.47h11.47V71.37H246.8V46.84c0-2.47.07-5.68.19-9.64s.23-6.35.32-7.19H247l-14.9,41.36Z"/><path class="cls-1" d="M296.43,71.37H268.36V21.76h28.07v6.86h-20v13.5h18.7V48.9h-18.7V64.47h20Z"/><path class="cls-1" d="M303.74,56.14V49.35h17.44v6.79Z"/><path class="cls-1" d="M352.34,71.37,338,29.9h-.27q.58,9.23.58,17.31V71.33H330.9V21.76h11.43l13.78,39.47h.2l14.18-39.47H382V71.37h-7.8V46.84q0-3.71.19-9.64c.12-4,.23-6.35.32-7.19h-.27L359.5,71.37Z"/><path class="cls-1" d="M439.76,46.5q0,12.12-6,18.83T416.6,72.05q-11.22,0-17.25-6.67t-6-19q0-12.29,6-18.86t17.29-6.59q11.07,0,17.1,6.69T439.76,46.5Zm-37.86,0q0,9.16,3.69,13.89t11,4.74q7.23,0,10.91-4.69t3.68-13.94q0-9.12-3.64-13.84T416.62,27.9q-7.29,0-11,4.72T401.9,46.5Z"/><path class="cls-1" d="M479.37,21.76h8.42L470.42,71.37h-8.55L444.56,21.76h8.35l10.33,30.85c.54,1.47,1.12,3.37,1.73,5.68s1,4,1.19,5.17q.43-2.57,1.35-6t1.5-5Z"/><path class="cls-1" d="M523.09,71.37H495V21.76h28.06v6.86h-20v13.5h18.7V48.9H503.14V64.47h20Z"/><path class="cls-1" d="M542.62,51.56V71.37h-8.11V21.76h14c6.41,0,11.14,1.2,14.22,3.6s4.62,6,4.62,10.86q0,9.26-9.64,13.2l14,22h-9.23L550.61,51.61Zm0-6.72h5.62q5.67,0,8.21-2.11A7.62,7.62,0,0,0,559,36.49c0-2.8-.92-4.82-2.75-6s-4.59-1.83-8.28-1.83h-5.36Z"/><path class="cls-1" d="M207.63,133.59h-2.94V91.42h23.1v2.72H207.63V112h19v2.74h-19Z"/><path class="cls-1" d="M233.24,93.53c0-1.85.61-2.77,1.82-2.77a1.63,1.63,0,0,1,1.4.72,3.6,3.6,0,0,1,.5,2,3.68,3.68,0,0,1-.5,2,1.61,1.61,0,0,1-1.4.75C233.82,96.33,233.24,95.39,233.24,93.53Zm3.26,40.06h-2.86V102.24h2.86Z"/><path class="cls-1" d="M255.24,131.63a22.06,22.06,0,0,0,4.73-.46v2.3a14.89,14.89,0,0,1-4.78.7c-2.76,0-4.81-.74-6.13-2.22s-2-3.81-2-7V104.72h-4.62v-1.67l4.64-1.3,1.45-7.1H250v7.59h9.24v2.48H250v19.84a9.16,9.16,0,0,0,1.2,5.34A4.61,4.61,0,0,0,255.24,131.63Z"/><path class="cls-1" d="M288.61,133.59V113.26q0-4.74-2-6.88c-1.33-1.43-3.39-2.14-6.17-2.15q-5.62,0-8.23,2.84c-1.74,1.89-2.61,5-2.61,9.21v17.31h-2.86V102.24h2.43l.54,4.3h.18q3-4.91,10.87-4.91,10.67,0,10.67,11.45v20.51Z"/><path class="cls-1" d="M314.24,134.17c-4.55,0-8.11-1.41-10.65-4.21s-3.82-6.74-3.82-11.8,1.23-9,3.69-12a12.2,12.2,0,0,1,10-4.52,10.73,10.73,0,0,1,8.74,3.87q3.19,3.85,3.2,10.5v2.3H302.78q0,6.47,3,9.87t8.46,3.4a26.67,26.67,0,0,0,4.72-.37,29,29,0,0,0,5.15-1.62v2.6a23.41,23.41,0,0,1-4.91,1.57A26.64,26.64,0,0,1,314.24,134.17Zm-.83-30a9.43,9.43,0,0,0-7.27,3c-1.83,2-2.89,4.86-3.2,8.61h19.38q0-5.46-2.37-8.53a7.81,7.81,0,0,0-6.53-3.08Z"/><path class="cls-1" d="M353.45,125.43a7.46,7.46,0,0,1-3.21,6.47c-2.14,1.51-5.17,2.26-9.09,2.27-4.19,0-7.53-.65-10-1.94v-3.08a22.12,22.12,0,0,0,10,2.36q4.65,0,7.05-1.54a4.68,4.68,0,0,0,2.41-4.11,5,5,0,0,0-1.92-4,21.09,21.09,0,0,0-6.3-3.17,37.06,37.06,0,0,1-6.6-2.93,9.15,9.15,0,0,1-2.87-2.77,6.92,6.92,0,0,1-1-3.76,6.46,6.46,0,0,1,3-5.57c2-1.36,4.72-2,8.26-2a24.48,24.48,0,0,1,9.63,1.91l-1.06,2.59a22.6,22.6,0,0,0-8.57-1.9,12.32,12.32,0,0,0-6.08,1.27,3.89,3.89,0,0,0-2.25,3.52,4.92,4.92,0,0,0,1.74,3.92c1.16,1,3.44,2.08,6.82,3.29a32.44,32.44,0,0,1,6.17,2.75,9.06,9.06,0,0,1,2.9,2.78A6.77,6.77,0,0,1,353.45,125.43Z"/><path class="cls-1" d="M381,125.43a7.45,7.45,0,0,1-3.2,6.47c-2.13,1.51-5.15,2.26-9.08,2.27-4.2,0-7.52-.65-10-1.94v-3.08a22.12,22.12,0,0,0,10,2.36q4.63,0,7.05-1.54a4.7,4.7,0,0,0,2.41-4.07,5,5,0,0,0-1.92-4,21.33,21.33,0,0,0-6.3-3.17,36.45,36.45,0,0,1-6.61-2.93,9.15,9.15,0,0,1-2.87-2.77,7,7,0,0,1-1-3.76,6.42,6.42,0,0,1,2.95-5.57c2-1.36,4.73-2,8.27-2a24.84,24.84,0,0,1,9.63,1.91l-1.05,2.52a22.55,22.55,0,0,0-8.56-1.9,12.36,12.36,0,0,0-6.09,1.27,3.89,3.89,0,0,0-2.25,3.52,4.89,4.89,0,0,0,1.74,3.92,24.21,24.21,0,0,0,6.83,3.29,34.05,34.05,0,0,1,6.17,2.75,9.17,9.17,0,0,1,2.9,2.78A6.79,6.79,0,0,1,381,125.43Z"/></g></svg>