<svg id="Layer_1" data-name="Layer 1" xmlns="http://www.w3.org/2000/svg" viewBox="0 0 104.14 25.12"><path d="M24.14,25.09a11.37,11.37,0,0,1-1.43,0Q15.22,24,7.75,22.9c-1.85-.28-3.69-.57-5.53-.9a7.82,7.82,0,0,1-1.48-.5,3.84,3.84,0,0,1-.62-.45c.86-.35,1.63-.68,2.41-1,3.73-1.41,7.46-2.82,11.21-4.2.69-.26,1.42-.42,2.14-.64a1.1,1.1,0,0,1,1.3.41c.59.78,1.21,1.55,1.8,2.34l5,6.61.21.31Z"/><path d="M.05,20.48c-.16-.48.1-.74.35-1,2.35-2.56,4.69-5.12,7.05-7.67Q12.66,6.18,17.88.58a2.1,2.1,0,0,1,.62-.5c.39-.19.59,0,.51.39-.57,2.89-1.13,5.79-1.75,8.67a24,24,0,0,1-1,3A2.66,2.66,0,0,1,15,13.73c-1.6.8-3.18,1.65-4.81,2.38C6.93,17.55,3.68,18.93.44,20.34Z"/><path d="M19.71.35a3.94,3.94,0,0,1,.34.76c.36,1.61.72,3.22,1.05,4.83q1.14,5.45,2.24,10.9c.46,2.2.93,4.41,1.36,6.61a4.68,4.68,0,0,1,0,1.18h-.15c-.06-.07-.13-.13-.18-.2-1.93-3.3-3.85-6.6-5.8-9.89A3.77,3.77,0,0,1,18.12,12c.46-3.82.94-7.65,1.41-11.47a.85.85,0,0,1,.06-.17Z"/><path d="M39.77,15.12h0l1.43-9.6h2.95V19h-2V9.34h0L40.72,19h-2L37.16,9.48h0V19H35.27V5.52h3Z"/><path d="M48.63,11.22h2.91v1.93H48.63v4H52.3V19H46.51V5.52H52.3V7.45H48.63Z"/><path d="M54.28,11.31h3.86v1.93H54.28Z"/><path d="M64.84,15.12h0l1.43-9.6h3V19h-2V9.34h0L65.79,19h-2L62.24,9.48h0V19H60.34V5.52h3Z"/><path d="M71.4,8.77c0-2.17,1.14-3.4,3.23-3.4s3.22,1.23,3.22,3.4v7c0,2.16-1.14,3.4-3.22,3.4S71.4,18,71.4,15.79Zm2.13,7.16c0,1,.42,1.33,1.1,1.33s1.1-.37,1.1-1.33V8.63c0-1-.43-1.33-1.1-1.33s-1.1.37-1.1,1.33Z"/><path d="M83.16,16.54h0l1.6-11h2L84.66,19H81.5L79.41,5.52h2.15Z"/><path d="M90.63,11.22h2.91v1.93H90.63v4h3.66V19H88.5V5.52h5.79V7.45H90.63Z"/><path d="M100.82,19a4.07,4.07,0,0,1-.19-1.66V15.25c0-1.25-.43-1.72-1.39-1.72H98.5V19H96.38V5.52h3.2c2.2,0,3.15,1,3.15,3.11V9.69a2.65,2.65,0,0,1-1.39,2.72v0c1.06.45,1.41,1.45,1.41,2.86v2.08A4,4,0,0,0,103,19ZM98.5,7.45V11.6h.83c.79,0,1.28-.35,1.28-1.43V8.84c0-1-.33-1.39-1.09-1.39Z"/></svg>